REM DIRINDEX 1\2\3,1\2\4,1\2\5,1\2\6
REM DIRNAME folder01,folder02,folder03,folder04,folder05,folder06
TITLE ""
FILE "092 092.mp3" MP3
  TRACK 01 AUDIO
    TITLE "0:"
    INDEX 01 00:00:00
  TRACK 02 AUDIO
    TITLE "3:cjc157_3472"
    INDEX 01 00:00:09
  TRACK 03 AUDIO
    TITLE "0:"
    INDEX 01 00:01:15
  TRACK 04 AUDIO
    TITLE "4:cjc157_3473"
    INDEX 01 00:01:62
  TRACK 05 AUDIO
    TITLE "0:"
    INDEX 01 00:02:71
  TRACK 06 AUDIO
    TITLE "5:cjc157_3474"
    INDEX 01 00:03:45
  TRACK 07 AUDIO
    TITLE "0:"
    INDEX 01 00:06:26
  TRACK 08 AUDIO
    TITLE "5:cjc157_3475"
    INDEX 01 00:06:71
  TRACK 09 AUDIO
    TITLE "0:"
    INDEX 01 00:09:67
  TRACK 10 AUDIO
    TITLE "3:cjc157_3476"
    INDEX 01 00:10:39
  TRACK 11 AUDIO
    TITLE "0:"
    INDEX 01 00:11:58
  TRACK 12 AUDIO
    TITLE "4:cjc157_3477"
    INDEX 01 00:12:32
  TRACK 13 AUDIO
    TITLE "0:"
    INDEX 01 00:15:52
  TRACK 14 AUDIO
    TITLE "5:cjc157_3478"
    INDEX 01 00:16:22
  TRACK 15 AUDIO
    TITLE "0:"
    INDEX 01 00:18:33
  TRACK 16 AUDIO
    TITLE "5:cjc157_3479"
    INDEX 01 00:19:05
  TRACK 17 AUDIO
    TITLE "0:"
    INDEX 01 00:21:09
  TRACK 18 AUDIO
    TITLE "3:cjc157_3480"
    INDEX 01 00:21:51
  TRACK 19 AUDIO
    TITLE "0:"
    INDEX 01 00:22:66
  TRACK 20 AUDIO
    TITLE "4:cjc157_3481"
    INDEX 01 00:23:42
  TRACK 21 AUDIO
    TITLE "0:"
    INDEX 01 00:24:51
  TRACK 22 AUDIO
    TITLE "5:cjc157_3482"
    INDEX 01 00:25:19
  TRACK 23 AUDIO
    TITLE "0:"
    INDEX 01 00:27:38
  TRACK 24 AUDIO
    TITLE "5:cjc157_3483"
    INDEX 01 00:28:04
  TRACK 25 AUDIO
    TITLE "0:"
    INDEX 01 00:31:27
  TRACK 26 AUDIO
    TITLE "5:cjc157_3484"
    INDEX 01 00:32:00
  TRACK 27 AUDIO
    TITLE "0:"
    INDEX 01 00:33:15
  TRACK 28 AUDIO
    TITLE "3:cjc157_3485"
    INDEX 01 00:33:66
  TRACK 29 AUDIO
    TITLE "0:"
    INDEX 01 00:35:02
  TRACK 30 AUDIO
    TITLE "4:cjc157_3486"
    INDEX 01 00:35:49
  TRACK 31 AUDIO
    TITLE "0:"
    INDEX 01 00:36:52
  TRACK 32 AUDIO
    TITLE "5:cjc157_3487"
    INDEX 01 00:37:24
  TRACK 33 AUDIO
    TITLE "0:"
    INDEX 01 00:39:33
  TRACK 34 AUDIO
    TITLE "5:cjc157_3488"
    INDEX 01 00:40:01
  TRACK 35 AUDIO
    TITLE "0:"
    INDEX 01 00:41:59
  TRACK 36 AUDIO
    TITLE "3:cjc157_3489"
    INDEX 01 00:42:31
  TRACK 37 AUDIO
    TITLE "0:"
    INDEX 01 00:44:16
  TRACK 38 AUDIO
    TITLE "4:cjc157_3490"
    INDEX 01 00:44:61
  TRACK 39 AUDIO
    TITLE "0:"
    INDEX 01 00:46:13
  TRACK 40 AUDIO
    TITLE "5:cjc157_3491"
    INDEX 01 00:46:60
  TRACK 41 AUDIO
    TITLE "0:"
    INDEX 01 00:50:74
  TRACK 42 AUDIO
    TITLE "5:cjc157_3492"
    INDEX 01 00:51:42
  TRACK 43 AUDIO
    TITLE "0:"
    INDEX 01 00:53:58
  TRACK 44 AUDIO
    TITLE "3:cjc157_3493"
    INDEX 01 00:54:30
  TRACK 45 AUDIO
    TITLE "0:"
    INDEX 01 00:55:50
  TRACK 46 AUDIO
    TITLE "4:cjc157_3494"
    INDEX 01 00:56:20
  TRACK 47 AUDIO
    TITLE "0:"
    INDEX 01 00:57:39
  TRACK 48 AUDIO
    TITLE "5:cjc157_3495"
    INDEX 01 00:58:15
  TRACK 49 AUDIO
    TITLE "0:"
    INDEX 01 01:00:59
  TRACK 50 AUDIO
    TITLE "3:cjc157_3496"
    INDEX 01 01:01:33
  TRACK 51 AUDIO
    TITLE "0:"
    INDEX 01 01:02:40
  TRACK 52 AUDIO
    TITLE "4:cjc157_3497"
    INDEX 01 01:03:12
  TRACK 53 AUDIO
    TITLE "0:"
    INDEX 01 01:06:38
  TRACK 54 AUDIO
    TITLE "5:cjc157_3498"
    INDEX 01 01:07:08
  TRACK 55 AUDIO
    TITLE "0:"
    INDEX 01 01:10:26
  TRACK 56 AUDIO
    TITLE "5:cjc157_3499"
    INDEX 01 01:10:69
  TRACK 57 AUDIO
    TITLE "0:"
    INDEX 01 01:12:68
  TRACK 58 AUDIO
    TITLE "5:cjc157_3500"
    INDEX 01 01:13:45
  TRACK 59 AUDIO
    TITLE "0:"
    INDEX 01 01:16:20
  TRACK 60 AUDIO
    TITLE "3:cjc157_3501"
    INDEX 01 01:16:65
  TRACK 61 AUDIO
    TITLE "0:"
    INDEX 01 01:17:57
  TRACK 62 AUDIO
    TITLE "4:cjc157_3502"
    INDEX 01 01:18:27
  TRACK 63 AUDIO
    TITLE "0:"
    INDEX 01 01:19:56
  TRACK 64 AUDIO
    TITLE "5:cjc157_3503"
    INDEX 01 01:20:26
  TRACK 65 AUDIO
    TITLE "0:"
    INDEX 01 01:22:15
  TRACK 66 AUDIO
    TITLE "5:cjc157_3504"
    INDEX 01 01:22:64
  TRACK 67 AUDIO
    TITLE "0:"
    INDEX 01 01:25:13
  TRACK 68 AUDIO
    TITLE "3:cjc157_3505"
    INDEX 01 01:25:57
  TRACK 69 AUDIO
    TITLE "0:"
    INDEX 01 01:26:58
  TRACK 70 AUDIO
    TITLE "4:cjc157_3506"
    INDEX 01 01:27:30
  TRACK 71 AUDIO
    TITLE "0:"
    INDEX 01 01:28:69
  TRACK 72 AUDIO
    TITLE "5:cjc157_3507"
    INDEX 01 01:29:45
  TRACK 73 AUDIO
    TITLE "0:"
    INDEX 01 01:31:55
  TRACK 74 AUDIO
    TITLE "5:cjc157_3508"
    INDEX 01 01:32:29
  TRACK 75 AUDIO
    TITLE "0:"
    INDEX 01 01:34:50
  TRACK 76 AUDIO
    TITLE "3:cjc157_3509"
    INDEX 01 01:35:22
  TRACK 77 AUDIO
    TITLE "0:"
    INDEX 01 01:36:35
  TRACK 78 AUDIO
    TITLE "4:cjc157_3510"
    INDEX 01 01:37:07
  TRACK 79 AUDIO
    TITLE "0:"
    INDEX 01 01:38:24
  TRACK 80 AUDIO
    TITLE "5:cjc157_3511"
    INDEX 01 01:38:73
  TRACK 81 AUDIO
    TITLE "0:"
    INDEX 01 01:40:72
  TRACK 82 AUDIO
    TITLE "5:cjc157_3512"
    INDEX 01 01:41:44
  TRACK 83 AUDIO
    TITLE "0:"
    INDEX 01 01:43:66
